<svg xmlns="http://www.w3.org/2000/svg" version="1.1" xmlns:xlink="http://www.w3.org/1999/xlink" xmlns:svgjs="http://svgjs.dev/svgjs" width="1440" height="560" preserveAspectRatio="none" viewBox="0 0 1440 560"><g mask="url(&quot;#SvgjsMask1032&quot;)" fill="none"><rect width="1440" height="560" x="0" y="0" fill="rgba(19, 20, 21, 1)"></rect><path d="M370.986,192.846C396.865,190.652,421.095,179.366,434.197,156.941C447.417,134.314,446.382,107.108,434.821,83.59C421.516,56.523,401.072,30.46,370.986,28.351C337.804,26.025,306.661,44.905,289.506,73.403C271.787,102.837,266.653,141.124,286.014,169.505C303.755,195.512,339.617,195.506,370.986,192.846" fill="rgba(55, 54, 54, 0.4)" class="triangle-float1"></path><path d="M645.355,473.53C664.543,473.627,684.247,468.826,694.941,452.895C706.882,435.107,710.938,411.113,699.352,393.092C688.396,376.05,665.572,374.454,645.355,375.768C627.841,376.907,611.706,384.592,602.288,399.402C592.07,415.471,587.06,435.935,596.626,452.4C606.158,468.807,626.38,473.434,645.355,473.53" fill="rgba(55, 54, 54, 0.4)" class="triangle-float1"></path><path d="M1300.0951104723088 229.0498110927527L1427.8547488406236 199.55417448380373 1398.3591122316745 71.79453611548891 1270.59947386336 101.29017272443788z" fill="rgba(55, 54, 54, 0.4)" class="triangle-float1"></path><path d="M1331.0515207798444 486.963821453036L1385.1945056912946 567.2340976015263 1411.3217969283346 432.8208365415858z" fill="rgba(55, 54, 54, 0.4)" class="triangle-float3"></path><path d="M637.65 444.22 a185.01 185.01 0 1 0 370.02 0 a185.01 185.01 0 1 0 -370.02 0z" fill="rgba(55, 54, 54, 0.4)" class="triangle-float2"></path><path d="M941.39 446.75 a183.45 183.45 0 1 0 366.9 0 a183.45 183.45 0 1 0 -366.9 0z" fill="rgba(55, 54, 54, 0.4)" class="triangle-float1"></path><path d="M348.16 430.79 a119.44 119.44 0 1 0 238.88 0 a119.44 119.44 0 1 0 -238.88 0z" fill="rgba(55, 54, 54, 0.4)" class="triangle-float2"></path><path d="M219.334,32.058C239.398,32.234,255.075,15.802,263.778,-2.277C271.364,-18.035,268.507,-36.14,259.33,-51.028C250.648,-65.113,235.877,-74.041,219.334,-74.378C202.162,-74.728,185.297,-67.417,176.413,-52.717C167.234,-37.529,168.206,-18.878,176.222,-3.046C185.194,14.675,199.472,31.884,219.334,32.058" fill="rgba(55, 54, 54, 0.4)" class="triangle-float2"></path><path d="M1323.4862569795982 410.8901885293486L1421.09434389548 373.4219544337306 1316.0879492941121 245.7439411077169z" fill="rgba(55, 54, 54, 0.4)" class="triangle-float2"></path><path d="M366.193,650.357C419.9,653.504,476.138,635.029,503.607,588.771C531.551,541.713,519.494,484.094,493.532,435.915C465.865,384.572,424.5,335.128,366.193,333.766C306.138,332.363,253.503,375.273,228.116,429.716C205.958,477.234,226.287,529.706,254.1,574.151C279.789,615.201,317.851,647.524,366.193,650.357" fill="rgba(55, 54, 54, 0.4)" class="triangle-float2"></path><path d="M994.5665087792074 263.8347608048214L855.8232131286728 229.24217199239266 959.9739199667787 402.57805645535603z" fill="rgba(55, 54, 54, 0.4)" class="triangle-float2"></path><path d="M469.428,500.755C499.033,500.119,519.697,474.253,533.328,447.965C545.704,424.097,549.764,395.728,535.804,372.75C522.295,350.514,495.442,343.25,469.428,342.788C442.364,342.308,413.387,347.491,398.841,370.318C383.382,394.577,386.897,425.518,400.588,450.817C415.049,477.539,439.051,501.408,469.428,500.755" fill="rgba(55, 54, 54, 0.4)" class="triangle-float3"></path></g><defs><mask id="SvgjsMask1032"><rect width="1440" height="560" fill="#ffffff"></rect></mask><style>
                @keyframes float1 {
                    0%{transform: translate(0, 0)}
                    50%{transform: translate(-10px, 0)}
                    100%{transform: translate(0, 0)}
                }

                .triangle-float1 {
                    animation: float1 5s infinite;
                }

                @keyframes float2 {
                    0%{transform: translate(0, 0)}
                    50%{transform: translate(-5px, -5px)}
                    100%{transform: translate(0, 0)}
                }

                .triangle-float2 {
                    animation: float2 4s infinite;
                }

                @keyframes float3 {
                    0%{transform: translate(0, 0)}
                    50%{transform: translate(0, -10px)}
                    100%{transform: translate(0, 0)}
                }

                .triangle-float3 {
                    animation: float3 6s infinite;
                }
            </style></defs></svg>